<?xml version="1.0" encoding="iso-8859-1"?>
<!-- Generator: Adobe Illustrator 19.0.0, SVG Export Plug-In . SVG Version: 6.00 Build 0)  -->
<svg version="1.1" id="Capa_1" xmlns="http://www.w3.org/2000/svg" xmlns:xlink="http://www.w3.org/1999/xlink" x="0px" y="0px"
	 viewBox="0 0 512 512" style="enable-background:new 0 0 512 512;" xml:space="preserve">
<path style="fill:#A8E5FF;" d="M337.75,172.5h-25l-30,107h75v-87C357.75,181.454,348.796,172.5,337.75,172.5z"/>
<path style="fill:#DBF4FF;" d="M312.75,172.5h-25c-11.046,0-20,8.954-20,20v87h45V172.5z"/>
<path style="fill:#40211D;" d="M380.25,75c0-9.429-4.354-17.838-11.157-23.338c0.922-8.699-1.946-17.724-8.613-24.392
	s-15.692-9.535-24.392-8.613C330.588,11.854,322.179,7.5,312.75,7.5s-17.838,4.354-23.338,11.157
	c-8.699-0.922-17.724,1.946-24.392,8.613s-9.535,15.692-8.613,24.392c-6.803,5.5-11.157,13.909-11.157,23.338
	s4.354,17.838,11.157,23.338c-0.922,8.699,1.946,17.724,8.613,24.392c11.716,11.716,30.711,11.716,42.427,0h10.606
	c11.716,11.716,30.711,11.716,42.427,0c6.668-6.668,9.535-15.692,8.613-24.392C375.896,92.838,380.25,84.429,380.25,75z"/>
<path style="fill:#60312C;" d="M312.75,52.5v90c24.853,0,45-20.147,45-45S337.603,52.5,312.75,52.5z"/>
<path style="fill:#85453D;" d="M327.75,97.5c0-24.853-6.716-45-15-45c-24.853,0-45,20.147-45,45s20.147,45,45,45
	C321.034,142.5,327.75,122.353,327.75,97.5z"/>
<rect x="64.25" y="37.5" style="fill:#FF4128;" width="53.5" height="75"/>
<polygon style="fill:#CF301B;" points="177.75,7.5 132.75,45 177.75,82.5 207.75,82.5 207.75,7.5 "/>
<path style="fill:#FF4128;" d="M117.75,7.5c-8.25,0-15,6.75-15,15v75l45-15h30v-75H117.75z"/>
<path style="fill:#60312C;" d="M117.75,82.5h30v30h-30c-8.25,0-15-6.75-15-15S109.5,82.5,117.75,82.5z"/>
<polygon style="fill:#A45E43;" points="222.75,279.75 222.75,324.75 372.75,504.75 402.75,504.75 402.75,279.75 "/>
<g>
	<rect x="222.75" y="324.75" style="fill:#C27749;" width="150" height="180"/>
	<polygon style="fill:#C27749;" points="432.75,249.5 432.75,294.5 402.75,294.5 372.75,272 402.75,249.5 	"/>
</g>
<rect x="192.75" y="249.5" style="fill:#E18F4E;" width="210" height="45"/>
<circle style="fill:#FFFFFF;" cx="312.75" cy="384.5" r="60"/>
<path style="fill:#2DADE3;" d="M312.75,354.5l-15,30l15,30c16.569,0,30-13.431,30-30S329.319,354.5,312.75,354.5z"/>
<path style="fill:#49C9FF;" d="M282.75,384.5c0,16.569,13.431,30,30,30v-60C296.181,354.5,282.75,367.931,282.75,384.5z"/>
<path d="M259.717,128.033c5.503,5.503,12.63,9.156,20.273,10.448C288.978,145.68,300.366,150,312.75,150s23.772-4.32,32.76-11.519
	c7.643-1.292,14.77-4.945,20.272-10.447c7.103-7.102,10.993-16.595,10.981-26.518C383.789,94.507,387.75,85.043,387.75,75
	s-3.961-19.507-10.986-26.515c0.012-9.923-3.879-19.417-10.98-26.518c-7.091-7.091-16.563-10.98-26.472-10.98
	C332.257,3.961,322.793,0,312.75,0s-19.507,3.961-26.515,10.986c-9.954,0-19.429,3.89-26.519,10.98
	c-7.102,7.102-10.992,16.594-10.98,26.518C241.711,55.493,237.75,64.956,237.75,75s3.961,19.507,10.986,26.515
	C248.725,111.439,252.615,120.932,259.717,128.033z M312.75,135c-20.678,0-37.5-16.822-37.5-37.5S292.072,60,312.75,60
	s37.5,16.822,37.5,37.5S333.428,135,312.75,135z M261.122,57.495c1.979-1.6,3.012-4.093,2.743-6.624
	c-0.721-6.803,1.633-13.473,6.459-18.298c4.824-4.825,11.491-7.179,18.298-6.458c2.53,0.271,5.023-0.764,6.622-2.743
	C299.546,18.052,305.927,15,312.75,15s13.204,3.052,17.506,8.373c1.599,1.978,4.099,3.01,6.622,2.743
	c6.803-0.721,13.474,1.633,18.298,6.458c4.826,4.825,7.18,11.495,6.459,18.298c-0.269,2.53,0.765,5.023,2.743,6.623
	c5.32,4.301,8.372,10.682,8.372,17.505c0,6.567-2.833,12.718-7.789,17.006C362.206,65.63,339.843,45,312.75,45
	s-49.456,20.63-52.211,47.006c-4.955-4.287-7.789-10.438-7.789-17.006C252.75,68.176,255.802,61.795,261.122,57.495z"/>
<path d="M442.75,242h-77.5v-42.286c50.271-3.842,90-45.976,90-97.214c0-4.142-3.357-7.5-7.5-7.5s-7.5,3.358-7.5,7.5
	c0,43.343-33.605,78.961-76.125,82.229C360.763,173.339,350.215,165,337.75,165h-50c-12.563,0-23.178,8.472-26.452,20H215.25V7.5
	c0-4.142-3.357-7.5-7.5-7.5h-90c-12.406,0-22.5,10.093-22.5,22.5V30h-31c-4.143,0-7.5,3.358-7.5,7.5v75c0,4.142,3.357,7.5,7.5,7.5
	h83.5c4.143,0,7.5-3.358,7.5-7.5V90h45v65h-7.5c-12.406,0-22.5,10.093-22.5,22.5s10.094,22.5,22.5,22.5h7.5v22
	c0,4.142,3.357,7.5,7.5,7.5s7.5-3.358,7.5-7.5v-22h45v42h-77.5c-4.143,0-7.5,3.358-7.5,7.5s3.357,7.5,7.5,7.5h2.5v37.5
	c0,4.142,3.357,7.5,7.5,7.5h22.5v195h-7.5c-4.143,0-7.5,3.358-7.5,7.5s3.357,7.5,7.5,7.5h210c4.143,0,7.5-3.358,7.5-7.5
	s-3.357-7.5-7.5-7.5h-7.5V302h22.5c4.143,0,7.5-3.358,7.5-7.5V257h2.5c4.143,0,7.5-3.358,7.5-7.5S446.893,242,442.75,242z
	 M71.75,105V45h23.5v52.5c0,2.629,0.458,5.153,1.29,7.5H71.75z M200.25,185h-7.5c-4.136,0-7.5-3.364-7.5-7.5s3.364-7.5,7.5-7.5h7.5
	V185z M140.25,105h-22.5c-4.136,0-7.5-3.364-7.5-7.5s3.364-7.5,7.5-7.5h22.5V105z M200.25,75h-82.5c-2.629,0-5.153,0.458-7.5,1.29
	V22.5c0-4.136,3.364-7.5,7.5-7.5h82.5V75z M275.25,192.5c0-6.893,5.607-12.5,12.5-12.5h17.5v7.5c0,4.142,3.357,7.5,7.5,7.5
	s7.5-3.358,7.5-7.5V180h17.5c6.893,0,12.5,5.607,12.5,12.5V242h-30v-24.5c0-4.142-3.357-7.5-7.5-7.5s-7.5,3.358-7.5,7.5V242h-30
	V192.5z M395.25,497h-165V302h165V497z M425.25,287h-225v-30h225V287z"/>
<path d="M312.75,422c20.678,0,37.5-16.822,37.5-37.5s-16.822-37.5-37.5-37.5s-37.5,16.822-37.5,37.5S292.072,422,312.75,422z
	 M312.75,362c12.406,0,22.5,10.093,22.5,22.5s-10.094,22.5-22.5,22.5s-22.5-10.093-22.5-22.5S300.344,362,312.75,362z"/>
<path d="M264.882,421.427c3.565-2.107,4.749-6.706,2.642-10.272c-4.758-8.054-7.273-17.271-7.273-26.655
	c0-28.949,23.552-52.5,52.5-52.5s52.5,23.551,52.5,52.5s-23.552,52.5-52.5,52.5c-9.384,0-18.601-2.515-26.654-7.274
	c-3.568-2.106-8.165-0.923-10.272,2.642c-2.107,3.566-0.925,8.166,2.642,10.272c10.363,6.124,22.219,9.36,34.285,9.36
	c37.22,0,67.5-30.28,67.5-67.5s-30.28-67.5-67.5-67.5s-67.5,30.28-67.5,67.5c0,12.066,3.236,23.921,9.359,34.285
	C256.717,422.352,261.316,423.535,264.882,421.427z"/>
<g>
</g>
<g>
</g>
<g>
</g>
<g>
</g>
<g>
</g>
<g>
</g>
<g>
</g>
<g>
</g>
<g>
</g>
<g>
</g>
<g>
</g>
<g>
</g>
<g>
</g>
<g>
</g>
<g>
</g>
</svg>
