<?xml version="1.0" encoding="UTF-8"?>
<svg width="554px" height="90px" viewBox="0 0 554 90" version="1.1" xmlns="http://www.w3.org/2000/svg" xmlns:xlink="http://www.w3.org/1999/xlink">
    <!-- Generator: Sketch 50.2 (55047) - http://www.bohemiancoding.com/sketch -->
    <title>logo</title>
    <desc>Created with Sketch.</desc>
    <defs></defs>
    <g id="Page-1" stroke="none" stroke-width="1" fill="none" fill-rule="evenodd">
        <g id="logo" transform="translate(0.000000, -6.000000)">
            <path d="M86.3817446,63.976855 C83.7817446,59.876855 75.5817446,48.376855 75.0817446,47.676855 C74.2817446,46.476855 73.0817446,45.676855 71.6817446,45.476855 C70.1817446,45.176855 68.5817446,45.576855 67.2817446,46.476855 C64.6817446,48.276855 63.8817446,51.776855 65.5817446,54.276855 L67.4817446,57.976855 L57.7817446,54.076855 L47.2817446,32.376855 L53.1817446,35.376855 C56.3817446,37.376855 60.4817446,36.376855 62.4817446,33.176855 C63.4817446,31.676855 63.7817446,29.776855 63.3817446,28.076855 C62.9817446,26.276855 61.8817446,24.776855 60.3817446,23.776855 C59.4817446,23.176855 43.9817446,12.776855 38.4817446,9.37685496 C31.5817446,5.17685496 22.7817446,4.87685496 14.9817446,8.57685496 C8.78174461,11.476855 4.08174461,16.576855 1.68174461,22.876855 C-0.71825539,29.176855 -0.51825539,36.076855 2.08174461,42.276855 C2.08174461,42.276855 2.08174461,42.276855 2.08174461,42.276855 L14.4817446,68.876855 C15.6817446,71.376855 18.0817446,72.776855 20.6817446,72.776855 C21.6817446,72.776855 22.5817446,72.576855 23.5817446,72.176855 C24.8817446,71.576855 25.8817446,70.676855 26.4817446,69.576855 L28.0817446,72.976855 C28.8817446,74.676855 30.1817446,75.876855 31.9817446,76.476855 C32.7817446,76.776855 33.4817446,76.876855 34.2817446,76.876855 C35.1817446,76.876855 35.9817446,76.676855 36.8817446,76.376855 L38.0817446,76.776855 C37.3817446,77.376855 36.7817446,78.076855 36.3817446,78.976855 C35.6817446,80.476855 35.6817446,81.976855 36.2817446,83.476855 C36.8817446,84.876855 37.8817446,85.876855 39.2817446,86.376855 L60.1817446,94.576855 C60.1817446,94.576855 60.1817446,94.576855 60.1817446,94.576855 C62.3817446,95.376855 64.6817446,95.776855 66.8817446,95.776855 C75.1817446,95.776855 83.2817446,90.776855 86.9817446,82.676855 C89.9817446,76.276855 89.6817446,69.276855 86.3817446,63.976855 Z M32.9817446,73.576855 C32.0817446,73.276855 31.2817446,72.576855 30.8817446,71.676855 L26.9817446,63.376855 C26.9817446,63.276855 26.8817446,63.176855 26.8817446,63.176855 L18.5817446,45.576855 C18.1817446,44.776855 17.2817446,44.476855 16.5817446,44.876855 C15.7817446,45.276855 15.4817446,46.176855 15.8817446,46.876855 L24.1817446,64.476855 C25.0817446,66.376855 24.2817446,68.576855 22.3817446,69.476855 C20.4817446,70.376855 18.2817446,69.576855 17.3817446,67.676855 L4.88174461,41.076855 C-0.0182553903,29.676855 4.98174461,16.676855 16.1817446,11.376855 C23.0817446,8.17685496 30.7817446,8.37685496 36.8817446,12.076855 C42.3817446,15.376855 58.5817446,26.276855 58.6817446,26.376855 C58.6817446,26.376855 58.6817446,26.376855 58.6817446,26.376855 C59.5817446,26.876855 60.0817446,27.776855 60.3817446,28.776855 C60.5817446,29.776855 60.3817446,30.776855 59.8817446,31.676855 C59.3817446,32.576855 58.4817446,33.076855 57.4817446,33.376855 C56.4817446,33.576855 55.4817446,33.376855 54.5817446,32.876855 C54.5817446,32.876855 54.4817446,32.876855 54.4817446,32.776855 L43.5817446,27.176855 C43.0817446,26.876855 42.4817446,26.976855 41.9817446,27.276855 C36.4817446,31.176855 27.5817446,30.476855 22.9817446,25.876855 C22.3817446,25.276855 21.3817446,25.276855 20.7817446,25.876855 C20.1817446,26.476855 20.1817446,27.476855 20.7817446,28.076855 C26.1817446,33.476855 35.9817446,34.476855 42.7817446,30.476855 L53.2817446,52.476855 L49.7817446,50.776855 C48.0817446,50.076855 46.2817446,50.376855 44.6817446,51.276855 L39.9817446,41.276855 C39.5817446,40.476855 38.6817446,40.176855 37.9817446,40.576855 C37.1817446,40.976855 36.8817446,41.876855 37.2817446,42.576855 L42.4817446,53.576855 C42.3817446,53.676855 42.3817446,53.776855 42.2817446,53.976855 C41.8817446,54.876855 41.6817446,55.776855 41.7817446,56.776855 L40.2817446,56.176855 C38.6817446,55.576855 36.9817446,55.676855 35.4817446,56.476855 L32.1817446,49.476855 C31.7817446,48.676855 30.8817446,48.376855 30.1817446,48.776855 C29.3817446,49.176855 29.0817446,50.076855 29.4817446,50.776855 L33.1817446,58.676855 C33.0817446,58.876855 32.9817446,59.076855 32.8817446,59.376855 C32.1817446,60.876855 32.1817446,62.376855 32.7817446,63.876855 C33.2817446,64.976855 34.0817446,65.876855 35.0817446,66.476855 C34.3817446,67.076855 33.7817446,67.776855 33.3817446,68.676855 C32.6817446,70.176855 32.6817446,71.676855 33.2817446,73.176855 C33.3817446,73.376855 33.4817446,73.576855 33.5817446,73.776855 C33.2817446,73.676855 33.1817446,73.576855 32.9817446,73.576855 Z M84.2817446,81.376855 C80.1817446,90.276855 70.0817446,94.876855 61.2817446,91.776855 L40.3817446,83.576855 C39.7817446,83.376855 39.3817446,82.876855 39.0817446,82.276855 C38.7817446,81.676855 38.8817446,80.876855 39.1817446,80.176855 C39.7817446,78.776855 41.4817446,78.076855 42.7817446,78.576855 L56.6817446,84.076855 C57.4817446,84.376855 58.3817446,83.976855 58.6817446,83.176855 C58.9817446,82.376855 58.5817446,81.476855 57.7817446,81.176855 L43.8817446,75.776855 C43.8817446,75.776855 43.6817446,75.676855 43.6817446,75.676855 C43.6817446,75.676855 36.8817446,72.976855 36.6817446,72.876855 C36.2817446,72.676855 36.0817446,72.276855 35.8817446,71.876855 C35.5817446,71.276855 35.6817446,70.476855 35.9817446,69.776855 C36.2817446,68.976855 36.9817446,68.476855 37.6817446,68.176855 C38.2817446,67.976855 53.4817446,73.676855 53.4817446,73.676855 C54.2817446,73.976855 55.1817446,73.576855 55.4817446,72.776855 C55.7817446,71.976855 55.3817446,71.076855 54.5817446,70.776855 L36.6817446,63.776855 C36.0817446,63.576855 35.6817446,63.076855 35.3817446,62.476855 C35.0817446,61.876855 35.1817446,61.076855 35.4817446,60.376855 C35.7817446,59.776855 36.1817446,59.376855 36.6817446,58.976855 C37.3817446,58.576855 38.2817446,58.376855 39.0817446,58.676855 L59.8817446,66.876855 C60.6817446,67.176855 61.5817446,66.776855 61.8817446,65.976855 C62.1817446,65.176855 61.7817446,64.276855 60.9817446,63.976855 L46.3817446,58.176855 C46.3817446,58.176855 46.3817446,58.176855 46.3817446,58.176855 C45.6817446,57.876855 45.1817446,57.376855 44.9817446,56.776855 C44.6817446,56.176855 44.7817446,55.476855 44.9817446,54.876855 C45.1817446,54.376855 45.5817446,53.976855 45.9817446,53.676855 C46.7817446,53.076855 47.7817446,52.876855 48.5817446,53.276855 L70.0817446,62.276855 C70.6817446,62.476855 71.3817446,62.376855 71.7817446,61.876855 C72.1817446,61.376855 72.2817446,60.676855 71.9817446,60.176855 C71.9817446,60.176855 67.9817446,52.676855 67.9817446,52.576855 C67.1817446,51.376855 67.5817446,49.776855 68.8817446,48.876855 C69.4817446,48.476855 70.2817446,48.276855 70.9817446,48.376855 C71.5817446,48.476855 72.0817446,48.876855 72.4817446,49.376855 C72.4817446,49.376855 72.4817446,49.376855 72.4817446,49.376855 C72.5817446,49.476855 81.0817446,61.476855 83.6817446,65.576855 C86.5817446,69.976855 86.7817446,75.876855 84.2817446,81.376855 Z" id="Shape" fill="#000000" fill-rule="nonzero"></path>
            <text id="Chronic-Help" font-family="SourceSansPro-Black, Source Sans Pro" font-size="80" font-weight="700" letter-spacing="-0.777778029" fill="#0960C6">
                <tspan x="104.106668" y="79">Chronic Help</tspan>
            </text>
        </g>
    </g>
</svg>