<?xml version="1.0" encoding="iso-8859-1"?>
<!-- Generator: Adobe Illustrator 19.0.0, SVG Export Plug-In . SVG Version: 6.00 Build 0)  -->
<svg version="1.1" id="Capa_1" xmlns="http://www.w3.org/2000/svg" xmlns:xlink="http://www.w3.org/1999/xlink" x="0px" y="0px"
	 viewBox="0 0 512 512" style="enable-background:new 0 0 512 512;" xml:space="preserve">
<g>
	<path style="fill:#FFDC13;" d="M442.576,4.339c-14.379,0-26.034,11.655-26.034,26.034v8.678h52.068v-8.678
		C468.61,15.994,456.956,4.339,442.576,4.339z"/>
	<rect x="416.542" y="186.576" style="fill:#FFDC13;" width="52.068" height="260.339"/>
</g>
<polygon style="fill:#FFA511;" points="416.542,446.915 468.61,446.915 442.576,498.983 "/>
<rect y="39.051" style="fill:#B7E5FF;" width="381.831" height="468.61"/>
<path style="fill:#99C8E0;" d="M0,446.915v60.746h381.831v-271.62C299.294,367.33,155.075,446.976,0,446.915z"/>
<g>
	<rect x="78.102" y="4.339" style="fill:#235087;" width="225.627" height="34.712"/>
	<path style="fill:#235087;" d="M295.051,99.797h-86.78c-4.79,0-8.678-3.888-8.678-8.678s-3.888-8.678-8.678-8.678
		s-8.678,3.888-8.678,8.678s-3.888,8.678-8.678,8.678H86.78c-4.79,0-8.678-3.888-8.678-8.678V39.051h17.356v43.39h70.908
		c4.782-13.555,19.656-20.671,33.211-15.889c7.428,2.621,13.269,8.461,15.889,15.889h70.908v-43.39h17.356v52.068
		C303.729,95.909,299.841,99.797,295.051,99.797z"/>
</g>
<circle style="fill:#4DB5FF;" cx="78.102" cy="151.864" r="26.034"/>
<circle style="fill:#FFDC13;" cx="78.102" cy="238.644" r="26.034"/>
<g>
	<path style="fill:#6B778A;" d="M329.763,143.186H208.271c-4.79,0-8.678-3.888-8.678-8.678c0-4.79,3.888-8.678,8.678-8.678h121.492
		c4.79,0,8.678,3.888,8.678,8.678C338.441,139.299,334.553,143.186,329.763,143.186z"/>
	<path style="fill:#6B778A;" d="M173.559,143.186h-34.712c-4.79,0-8.678-3.888-8.678-8.678c0-4.79,3.888-8.678,8.678-8.678h34.712
		c4.79,0,8.678,3.888,8.678,8.678C182.237,139.299,178.35,143.186,173.559,143.186z"/>
	<path style="fill:#6B778A;" d="M329.763,177.898h-69.424c-4.79,0-8.678-3.888-8.678-8.678s3.888-8.678,8.678-8.678h69.424
		c4.79,0,8.678,3.888,8.678,8.678S334.553,177.898,329.763,177.898z"/>
	<path style="fill:#6B778A;" d="M225.627,177.898h-86.78c-4.79,0-8.678-3.888-8.678-8.678s3.888-8.678,8.678-8.678h86.78
		c4.79,0,8.678,3.888,8.678,8.678S230.417,177.898,225.627,177.898z"/>
	<path style="fill:#6B778A;" d="M329.763,229.966h-34.712c-4.79,0-8.678-3.888-8.678-8.678s3.888-8.678,8.678-8.678h34.712
		c4.79,0,8.678,3.888,8.678,8.678S334.553,229.966,329.763,229.966z"/>
	<path style="fill:#6B778A;" d="M260.339,229.966H138.847c-4.79,0-8.678-3.888-8.678-8.678s3.888-8.678,8.678-8.678h121.492
		c4.79,0,8.678,3.888,8.678,8.678S265.129,229.966,260.339,229.966z"/>
	<path style="fill:#6B778A;" d="M329.763,264.678h-95.458c-4.79,0-8.678-3.888-8.678-8.678c0-4.79,3.888-8.678,8.678-8.678h95.458
		c4.79,0,8.678,3.888,8.678,8.678C338.441,260.79,334.553,264.678,329.763,264.678z"/>
	<path style="fill:#6B778A;" d="M199.593,264.678h-60.746c-4.79,0-8.678-3.888-8.678-8.678c0-4.79,3.888-8.678,8.678-8.678h60.746
		c4.79,0,8.678,3.888,8.678,8.678C208.271,260.79,204.383,264.678,199.593,264.678z"/>
</g>
<path style="fill:#EF2648;" d="M503.322,169.22c-4.79,0-8.678-3.888-8.678-8.678V82.441c0-14.379-11.655-26.034-26.034-26.034
	c-4.79,0-8.678-3.888-8.678-8.678s3.888-8.678,8.678-8.678c23.951,0.026,43.364,19.439,43.39,43.39v78.102
	C512,165.333,508.112,169.22,503.322,169.22z"/>
<rect x="416.542" y="39.051" style="fill:#FFA511;" width="52.068" height="147.525"/>
<circle style="fill:#E5AF17;" cx="303.729" cy="446.915" r="26.034"/>
<path style="fill:#FFDC13;" d="M195.662,451.662c19.039-16.436,29.974-40.344,29.965-65.493h-95.458L195.662,451.662z"/>
<g>
	<path style="fill:#FFA511;" d="M130.169,386.169h95.458c0.104-48.033-38.747-87.057-86.78-87.161s-87.057,38.747-87.161,86.78
		c-0.104,48.033,38.747,87.057,86.78,87.161c21.009,0.043,41.324-7.515,57.196-21.287L130.169,386.169z"/>
	<circle style="fill:#FFA511;" cx="303.729" cy="325.424" r="26.034"/>
</g>
<path style="fill:#E5AF17;" d="M195.662,451.662c18.97-16.384,29.896-40.196,29.965-65.258
	c-20.636,11.95-42.184,22.233-64.451,30.763L195.662,451.662z"/>
<g>
	<path style="fill:#F08015;" d="M71.741,441.179c30.295,37.029,84.871,42.487,121.899,12.193c0.686-0.555,1.362-1.128,2.022-1.71
		l-34.495-34.495C132.27,428.232,102.296,436.285,71.741,441.179z"/>
	<path style="fill:#F08015;" d="M286.182,344.515c10.466,9.763,26.876,9.19,36.638-1.276c8.756-9.39,9.32-23.778,1.319-33.827
		C312.164,321.831,299.494,333.546,286.182,344.515z"/>
</g>
<path style="fill:#E5AF17;" d="M468.61,446.915v-34.712c0.009,12.418-3.81,24.541-10.934,34.712H468.61z"/>
<path style="fill:#F08015;" d="M427.824,469.521l14.753,29.462l26.034-52.068h-10.934
	C450.343,457.398,439.903,465.313,427.824,469.521z"/>
<path style="fill:#EF2648;" d="M433.898,490.305c0,4.79,3.888,8.678,8.678,8.678s8.678-3.888,8.678-8.678v-8.678h-17.356V490.305z"
	/>
<path style="fill:#E5AF17;" d="M468.489,39.051h0.121v-8.678c0.035-14.345-11.568-25.999-25.912-26.034
	c-5.432-0.009-10.735,1.675-15.152,4.834C443.861,14.839,458.118,25.236,468.489,39.051z"/>
<path style="fill:#163768;" d="M251.661,455.593h-26.034c-2.3,0-4.513-0.911-6.135-2.543l-34.712-34.712l12.271-12.271
	l32.169,32.169h22.441V455.593z"/>
<path style="fill:#235087;" d="M197.051,366.271L184.78,354l34.712-34.712c1.623-1.631,3.836-2.543,6.135-2.543h26.034v17.356
	H229.22L197.051,366.271z"/>
<g>
</g>
<g>
</g>
<g>
</g>
<g>
</g>
<g>
</g>
<g>
</g>
<g>
</g>
<g>
</g>
<g>
</g>
<g>
</g>
<g>
</g>
<g>
</g>
<g>
</g>
<g>
</g>
<g>
</g>
</svg>
